<svg id="visual" viewBox="0 0 900 250" width="900" height="250" xmlns="http://www.w3.org/2000/svg" xmlns:xlink="http://www.w3.org/1999/xlink" version="1.1"><rect x="0" y="0" width="900" height="250" fill="#ffffff"></rect><path d="M0 178L18.8 179.5C37.7 181 75.3 184 112.8 182.3C150.3 180.7 187.7 174.3 225.2 175.7C262.7 177 300.3 186 337.8 189.8C375.3 193.7 412.7 192.3 450.2 188.7C487.7 185 525.3 179 562.8 177.2C600.3 175.3 637.7 177.7 675.2 181.2C712.7 184.7 750.3 189.3 787.8 190.8C825.3 192.3 862.7 190.7 881.3 189.8L900 189L900 251L881.3 251C862.7 251 825.3 251 787.8 251C750.3 251 712.7 251 675.2 251C637.7 251 600.3 251 562.8 251C525.3 251 487.7 251 450.2 251C412.7 251 375.3 251 337.8 251C300.3 251 262.7 251 225.2 251C187.7 251 150.3 251 112.8 251C75.3 251 37.7 251 18.8 251L0 251Z" fill="#0041a9"></path><path d="M0 188L18.8 190C37.7 192 75.3 196 112.8 197C150.3 198 187.7 196 225.2 193.8C262.7 191.7 300.3 189.3 337.8 188.3C375.3 187.3 412.7 187.7 450.2 188.3C487.7 189 525.3 190 562.8 192.5C600.3 195 637.7 199 675.2 197.5C712.7 196 750.3 189 787.8 186C825.3 183 862.7 184 881.3 184.5L900 185L900 251L881.3 251C862.7 251 825.3 251 787.8 251C750.3 251 712.7 251 675.2 251C637.7 251 600.3 251 562.8 251C525.3 251 487.7 251 450.2 251C412.7 251 375.3 251 337.8 251C300.3 251 262.7 251 225.2 251C187.7 251 150.3 251 112.8 251C75.3 251 37.7 251 18.8 251L0 251Z" fill="#003e8b"></path><path d="M0 220L18.8 216.7C37.7 213.3 75.3 206.7 112.8 203.2C150.3 199.7 187.7 199.3 225.2 200.8C262.7 202.3 300.3 205.7 337.8 205.7C375.3 205.7 412.7 202.3 450.2 203.5C487.7 204.7 525.3 210.3 562.8 211.2C600.3 212 637.7 208 675.2 205.2C712.7 202.3 750.3 200.7 787.8 203.2C825.3 205.7 862.7 212.3 881.3 215.7L900 219L900 251L881.3 251C862.7 251 825.3 251 787.8 251C750.3 251 712.7 251 675.2 251C637.7 251 600.3 251 562.8 251C525.3 251 487.7 251 450.2 251C412.7 251 375.3 251 337.8 251C300.3 251 262.7 251 225.2 251C187.7 251 150.3 251 112.8 251C75.3 251 37.7 251 18.8 251L0 251Z" fill="#00396c"></path><path d="M0 219L18.8 218.3C37.7 217.7 75.3 216.3 112.8 215.3C150.3 214.3 187.7 213.7 225.2 215C262.7 216.3 300.3 219.7 337.8 220.3C375.3 221 412.7 219 450.2 219C487.7 219 525.3 221 562.8 223C600.3 225 637.7 227 675.2 226.8C712.7 226.7 750.3 224.3 787.8 222.5C825.3 220.7 862.7 219.3 881.3 218.7L900 218L900 251L881.3 251C862.7 251 825.3 251 787.8 251C750.3 251 712.7 251 675.2 251C637.7 251 600.3 251 562.8 251C525.3 251 487.7 251 450.2 251C412.7 251 375.3 251 337.8 251C300.3 251 262.7 251 225.2 251C187.7 251 150.3 251 112.8 251C75.3 251 37.7 251 18.8 251L0 251Z" fill="#00304b"></path><path d="M0 241L18.8 239.2C37.7 237.3 75.3 233.7 112.8 232.5C150.3 231.3 187.7 232.7 225.2 233C262.7 233.3 300.3 232.7 337.8 232.2C375.3 231.7 412.7 231.3 450.2 230.2C487.7 229 525.3 227 562.8 227.3C600.3 227.7 637.7 230.3 675.2 231C712.7 231.7 750.3 230.3 787.8 229.5C825.3 228.7 862.7 228.3 881.3 228.2L900 228L900 251L881.3 251C862.7 251 825.3 251 787.8 251C750.3 251 712.7 251 675.2 251C637.7 251 600.3 251 562.8 251C525.3 251 487.7 251 450.2 251C412.7 251 375.3 251 337.8 251C300.3 251 262.7 251 225.2 251C187.7 251 150.3 251 112.8 251C75.3 251 37.7 251 18.8 251L0 251Z" fill="#04222a"></path></svg>