<svg id="visual" viewBox="0 0 900 300" width="900" height="300" xmlns="http://www.w3.org/2000/svg" xmlns:xlink="http://www.w3.org/1999/xlink" version="1.1"><rect x="0" y="0" width="900" height="300" fill="#ffffff"></rect><path d="M0 84L18.8 82.2C37.7 80.3 75.3 76.7 112.8 78.7C150.3 80.7 187.7 88.3 225.2 86.8C262.7 85.3 300.3 74.7 337.8 70C375.3 65.3 412.7 66.7 450.2 71.2C487.7 75.7 525.3 83.3 562.8 85.7C600.3 88 637.7 85 675.2 80.7C712.7 76.3 750.3 70.7 787.8 68.8C825.3 67 862.7 69 881.3 70L900 71L900 0L881.3 0C862.7 0 825.3 0 787.8 0C750.3 0 712.7 0 675.2 0C637.7 0 600.3 0 562.8 0C525.3 0 487.7 0 450.2 0C412.7 0 375.3 0 337.8 0C300.3 0 262.7 0 225.2 0C187.7 0 150.3 0 112.8 0C75.3 0 37.7 0 18.8 0L0 0Z" fill="#04222a"></path><path d="M0 72L18.8 69.7C37.7 67.3 75.3 62.7 112.8 61.5C150.3 60.3 187.7 62.7 225.2 65.2C262.7 67.7 300.3 70.3 337.8 71.5C375.3 72.7 412.7 72.3 450.2 71.7C487.7 71 525.3 70 562.8 67C600.3 64 637.7 59 675.2 60.7C712.7 62.3 750.3 70.7 787.8 74.3C825.3 78 862.7 77 881.3 76.5L900 76L900 0L881.3 0C862.7 0 825.3 0 787.8 0C750.3 0 712.7 0 675.2 0C637.7 0 600.3 0 562.8 0C525.3 0 487.7 0 450.2 0C412.7 0 375.3 0 337.8 0C300.3 0 262.7 0 225.2 0C187.7 0 150.3 0 112.8 0C75.3 0 37.7 0 18.8 0L0 0Z" fill="#00304b"></path><path d="M0 34L18.8 38C37.7 42 75.3 50 112.8 54.2C150.3 58.3 187.7 58.7 225.2 56.8C262.7 55 300.3 51 337.8 51C375.3 51 412.7 55 450.2 53.5C487.7 52 525.3 45 562.8 44C600.3 43 637.7 48 675.2 51.5C712.7 55 750.3 57 787.8 54C825.3 51 862.7 43 881.3 39L900 35L900 0L881.3 0C862.7 0 825.3 0 787.8 0C750.3 0 712.7 0 675.2 0C637.7 0 600.3 0 562.8 0C525.3 0 487.7 0 450.2 0C412.7 0 375.3 0 337.8 0C300.3 0 262.7 0 225.2 0C187.7 0 150.3 0 112.8 0C75.3 0 37.7 0 18.8 0L0 0Z" fill="#00396c"></path><path d="M0 35L18.8 35.7C37.7 36.3 75.3 37.7 112.8 38.8C150.3 40 187.7 41 225.2 39.5C262.7 38 300.3 34 337.8 33.3C375.3 32.7 412.7 35.3 450.2 35.3C487.7 35.3 525.3 32.7 562.8 30.2C600.3 27.7 637.7 25.3 675.2 25.7C712.7 26 750.3 29 787.8 31.2C825.3 33.3 862.7 34.7 881.3 35.3L900 36L900 0L881.3 0C862.7 0 825.3 0 787.8 0C750.3 0 712.7 0 675.2 0C637.7 0 600.3 0 562.8 0C525.3 0 487.7 0 450.2 0C412.7 0 375.3 0 337.8 0C300.3 0 262.7 0 225.2 0C187.7 0 150.3 0 112.8 0C75.3 0 37.7 0 18.8 0L0 0Z" fill="#003e8b"></path><path d="M0 9L18.8 11C37.7 13 75.3 17 112.8 18.3C150.3 19.7 187.7 18.3 225.2 18.2C262.7 18 300.3 19 337.8 19.7C375.3 20.3 412.7 20.7 450.2 22C487.7 23.3 525.3 25.7 562.8 25.2C600.3 24.7 637.7 21.3 675.2 20.5C712.7 19.7 750.3 21.3 787.8 22.3C825.3 23.3 862.7 23.7 881.3 23.8L900 24L900 0L881.3 0C862.7 0 825.3 0 787.8 0C750.3 0 712.7 0 675.2 0C637.7 0 600.3 0 562.8 0C525.3 0 487.7 0 450.2 0C412.7 0 375.3 0 337.8 0C300.3 0 262.7 0 225.2 0C187.7 0 150.3 0 112.8 0C75.3 0 37.7 0 18.8 0L0 0Z" fill="#0041a9"></path></svg>