<svg id="visual" viewBox="0 0 900 300" width="900" height="300" xmlns="http://www.w3.org/2000/svg" xmlns:xlink="http://www.w3.org/1999/xlink" version="1.1"><rect x="0" y="0" width="900" height="300" fill="#001220"></rect><path d="M0 57L18.8 66.8C37.7 76.7 75.3 96.3 112.8 104.2C150.3 112 187.7 108 225.2 109.3C262.7 110.7 300.3 117.3 337.8 107.3C375.3 97.3 412.7 70.7 450.2 71.5C487.7 72.3 525.3 100.7 562.8 110.3C600.3 120 637.7 111 675.2 110.2C712.7 109.3 750.3 116.7 787.8 117.5C825.3 118.3 862.7 112.7 881.3 109.8L900 107L900 0L881.3 0C862.7 0 825.3 0 787.8 0C750.3 0 712.7 0 675.2 0C637.7 0 600.3 0 562.8 0C525.3 0 487.7 0 450.2 0C412.7 0 375.3 0 337.8 0C300.3 0 262.7 0 225.2 0C187.7 0 150.3 0 112.8 0C75.3 0 37.7 0 18.8 0L0 0Z" fill="#001220"></path><path d="M0 124L18.8 111.3C37.7 98.7 75.3 73.3 112.8 72.3C150.3 71.3 187.7 94.7 225.2 104.3C262.7 114 300.3 110 337.8 96.2C375.3 82.3 412.7 58.7 450.2 61.3C487.7 64 525.3 93 562.8 93.3C600.3 93.7 637.7 65.3 675.2 65.3C712.7 65.3 750.3 93.7 787.8 105.5C825.3 117.3 862.7 112.7 881.3 110.3L900 108L900 0L881.3 0C862.7 0 825.3 0 787.8 0C750.3 0 712.7 0 675.2 0C637.7 0 600.3 0 562.8 0C525.3 0 487.7 0 450.2 0C412.7 0 375.3 0 337.8 0C300.3 0 262.7 0 225.2 0C187.7 0 150.3 0 112.8 0C75.3 0 37.7 0 18.8 0L0 0Z" fill="#002141"></path><path d="M0 90L18.8 89C37.7 88 75.3 86 112.8 76.3C150.3 66.7 187.7 49.3 225.2 46.3C262.7 43.3 300.3 54.7 337.8 62C375.3 69.3 412.7 72.7 450.2 69.7C487.7 66.7 525.3 57.3 562.8 55.5C600.3 53.7 637.7 59.3 675.2 64.3C712.7 69.3 750.3 73.7 787.8 72.2C825.3 70.7 862.7 63.3 881.3 59.7L900 56L900 0L881.3 0C862.7 0 825.3 0 787.8 0C750.3 0 712.7 0 675.2 0C637.7 0 600.3 0 562.8 0C525.3 0 487.7 0 450.2 0C412.7 0 375.3 0 337.8 0C300.3 0 262.7 0 225.2 0C187.7 0 150.3 0 112.8 0C75.3 0 37.7 0 18.8 0L0 0Z" fill="#002d63"></path><path d="M0 51L18.8 50.8C37.7 50.7 75.3 50.3 112.8 45.3C150.3 40.3 187.7 30.7 225.2 26C262.7 21.3 300.3 21.7 337.8 30C375.3 38.3 412.7 54.7 450.2 54.5C487.7 54.3 525.3 37.7 562.8 28C600.3 18.3 637.7 15.7 675.2 16.2C712.7 16.7 750.3 20.3 787.8 29.7C825.3 39 862.7 54 881.3 61.5L900 69L900 0L881.3 0C862.7 0 825.3 0 787.8 0C750.3 0 712.7 0 675.2 0C637.7 0 600.3 0 562.8 0C525.3 0 487.7 0 450.2 0C412.7 0 375.3 0 337.8 0C300.3 0 262.7 0 225.2 0C187.7 0 150.3 0 112.8 0C75.3 0 37.7 0 18.8 0L0 0Z" fill="#003886"></path><path d="M0 21L18.8 23.8C37.7 26.7 75.3 32.3 112.8 36.7C150.3 41 187.7 44 225.2 37.7C262.7 31.3 300.3 15.7 337.8 8.5C375.3 1.3 412.7 2.7 450.2 5.7C487.7 8.7 525.3 13.3 562.8 20.7C600.3 28 637.7 38 675.2 36.5C712.7 35 750.3 22 787.8 17.5C825.3 13 862.7 17 881.3 19L900 21L900 0L881.3 0C862.7 0 825.3 0 787.8 0C750.3 0 712.7 0 675.2 0C637.7 0 600.3 0 562.8 0C525.3 0 487.7 0 450.2 0C412.7 0 375.3 0 337.8 0C300.3 0 262.7 0 225.2 0C187.7 0 150.3 0 112.8 0C75.3 0 37.7 0 18.8 0L0 0Z" fill="#0041a9"></path></svg>