<svg id="visual" viewBox="0 0 900 200" width="900" height="200" xmlns="http://www.w3.org/2000/svg" xmlns:xlink="http://www.w3.org/1999/xlink" version="1.1"><rect x="0" y="0" width="900" height="200" fill="#fff"></rect><path d="M0 37L13.7 39.3C27.3 41.7 54.7 46.3 82 49.2C109.3 52 136.7 53 163.8 51C191 49 218 44 245.2 42.5C272.3 41 299.7 43 327 52C354.3 61 381.7 77 409 82C436.3 87 463.7 81 491 73C518.3 65 545.7 55 573 48.5C600.3 42 627.7 39 654.8 43.7C682 48.3 709 60.7 736.2 66.7C763.3 72.7 790.7 72.3 818 73.2C845.3 74 872.7 76 886.3 77L900 78L900 0L886.3 0C872.7 0 845.3 0 818 0C790.7 0 763.3 0 736.2 0C709 0 682 0 654.8 0C627.7 0 600.3 0 573 0C545.7 0 518.3 0 491 0C463.7 0 436.3 0 409 0C381.7 0 354.3 0 327 0C299.7 0 272.3 0 245.2 0C218 0 191 0 163.8 0C136.7 0 109.3 0 82 0C54.7 0 27.3 0 13.7 0L0 0Z" fill="#ffffff"></path><path d="M0 28L13.7 36.2C27.3 44.3 54.7 60.7 82 67.8C109.3 75 136.7 73 163.8 67.2C191 61.3 218 51.7 245.2 48.7C272.3 45.7 299.7 49.3 327 53C354.3 56.7 381.7 60.3 409 58C436.3 55.7 463.7 47.3 491 44C518.3 40.7 545.7 42.3 573 44.2C600.3 46 627.7 48 654.8 50.8C682 53.7 709 57.3 736.2 61.3C763.3 65.3 790.7 69.7 818 66C845.3 62.3 872.7 50.7 886.3 44.8L900 39L900 0L886.3 0C872.7 0 845.3 0 818 0C790.7 0 763.3 0 736.2 0C709 0 682 0 654.8 0C627.7 0 600.3 0 573 0C545.7 0 518.3 0 491 0C463.7 0 436.3 0 409 0C381.7 0 354.3 0 327 0C299.7 0 272.3 0 245.2 0C218 0 191 0 163.8 0C136.7 0 109.3 0 82 0C54.7 0 27.3 0 13.7 0L0 0Z" fill="#b9bcc1"></path><path d="M0 59L13.7 52.2C27.3 45.3 54.7 31.7 82 26.5C109.3 21.3 136.7 24.7 163.8 28C191 31.3 218 34.7 245.2 38C272.3 41.3 299.7 44.7 327 48.8C354.3 53 381.7 58 409 59.2C436.3 60.3 463.7 57.7 491 50C518.3 42.3 545.7 29.7 573 25.5C600.3 21.3 627.7 25.7 654.8 29.3C682 33 709 36 736.2 37.3C763.3 38.7 790.7 38.3 818 37.3C845.3 36.3 872.7 34.7 886.3 33.8L900 33L900 0L886.3 0C872.7 0 845.3 0 818 0C790.7 0 763.3 0 736.2 0C709 0 682 0 654.8 0C627.7 0 600.3 0 573 0C545.7 0 518.3 0 491 0C463.7 0 436.3 0 409 0C381.7 0 354.3 0 327 0C299.7 0 272.3 0 245.2 0C218 0 191 0 163.8 0C136.7 0 109.3 0 82 0C54.7 0 27.3 0 13.7 0L0 0Z" fill="#777e87"></path><path d="M0 30L13.7 31.5C27.3 33 54.7 36 82 35.7C109.3 35.3 136.7 31.7 163.8 29.2C191 26.7 218 25.3 245.2 21.8C272.3 18.3 299.7 12.7 327 12.7C354.3 12.7 381.7 18.3 409 20C436.3 21.7 463.7 19.3 491 19.7C518.3 20 545.7 23 573 28.3C600.3 33.7 627.7 41.3 654.8 38.3C682 35.3 709 21.7 736.2 20.3C763.3 19 790.7 30 818 35C845.3 40 872.7 39 886.3 38.5L900 38L900 0L886.3 0C872.7 0 845.3 0 818 0C790.7 0 763.3 0 736.2 0C709 0 682 0 654.8 0C627.7 0 600.3 0 573 0C545.7 0 518.3 0 491 0C463.7 0 436.3 0 409 0C381.7 0 354.3 0 327 0C299.7 0 272.3 0 245.2 0C218 0 191 0 163.8 0C136.7 0 109.3 0 82 0C54.7 0 27.3 0 13.7 0L0 0Z" fill="#3a4551"></path><path d="M0 2L13.7 1.7C27.3 1.3 54.7 0.7 82 1.2C109.3 1.7 136.7 3.3 163.8 6.2C191 9 218 13 245.2 14.7C272.3 16.3 299.7 15.7 327 14.5C354.3 13.3 381.7 11.7 409 10.8C436.3 10 463.7 10 491 13.2C518.3 16.3 545.7 22.7 573 25.7C600.3 28.7 627.7 28.3 654.8 24.5C682 20.7 709 13.3 736.2 10C763.3 6.7 790.7 7.3 818 8.5C845.3 9.7 872.7 11.3 886.3 12.2L900 13L900 0L886.3 0C872.7 0 845.3 0 818 0C790.7 0 763.3 0 736.2 0C709 0 682 0 654.8 0C627.7 0 600.3 0 573 0C545.7 0 518.3 0 491 0C463.7 0 436.3 0 409 0C381.7 0 354.3 0 327 0C299.7 0 272.3 0 245.2 0C218 0 191 0 163.8 0C136.7 0 109.3 0 82 0C54.7 0 27.3 0 13.7 0L0 0Z" fill="#001220"></path></svg>